# xmcd
#
# Track frame offsets: 
#        150
#        20799
#        34362
#        58828
#        77983
#        101481
#        121025
#        141269
#        160498
#        173650
#        193236
#        216644
#        236892
#        258690
#        278975
#
# Disc length: 4248 seconds
#
# Revision: 0
# Processed by: cddbd v1.4PL0 Copyright (c) Steve Scherf et al.
# Submitted via: ExactAudioCopy v0.95a4
#
DISCID=ef10960f
DTITLE=Willie Nelson - Milk Cow Blues
DYEAR=2000
DGENRE=Blues
TTITLE0=Milk Cow Blues (Featuring Francine Reed)
TTITLE1=Outskirts of Town (Featuring Keb' Mo
TTITLE2=Black Night (Featuring Dr. John)
TTITLE3=Funny How Time Slips Away (Featuring Francine Reed)
TTITLE4=Rainy Day Blues (Featuring Jonny Lang)
TTITLE5=Crazy (featuring Susan Tedeschi)
TTITLE6=The Thrill is Gone (Featuring B.B. King)
TTITLE7=Wake Me When it's Over
TTITLE8=Kansas City (Featuring Susan Tedeschi)
TTITLE9=Fool's Paradise (Featuring Dr. John)
TTITLE10=Ain't Nobody's Business (Featuring Jonny Lang)
TTITLE11=Night Life (Featuring B.B. King)
TTITLE12=Sittin' on Top of the World
TTITLE13=Lonely Street
TTITLE14=Texas Flood (Featuring Kenny Wayne Shepherd)
EXTD=
EXTT0=
EXTT1=
EXTT2=
EXTT3=
EXTT4=
EXTT5=
EXTT6=
EXTT7=
EXTT8=
EXTT9=
EXTT10=
EXTT11=
EXTT12=
EXTT13=
EXTT14=
PLAYORDER=
